<?xml version="1.0" standalone="no"?>
<!DOCTYPE svg PUBLIC "-//W3C//DTD SVG 20010904//EN"
 "http://www.w3.org/TR/2001/REC-SVG-20010904/DTD/svg10.dtd">
<svg version="1.0" xmlns="http://www.w3.org/2000/svg"
 width="1536.000000pt" height="1024.000000pt" viewBox="0 0 1536.000000 1024.000000"
 preserveAspectRatio="xMidYMid meet">
<metadata>
Created by potrace 1.16, written by Peter Selinger 2001-2019
</metadata>
<g transform="translate(0.000000,1024.000000) scale(0.100000,-0.100000)"
fill="#000000" stroke="none">
<path d="M0 5120 l0 -5120 7680 0 7680 0 0 5120 0 5120 -7680 0 -7680 0 0
-5120z m9465 857 c39 -14 40 -15 45 -70 3 -32 3 -57 0 -57 -3 0 -13 18 -22 38
-47 101 -224 121 -316 37 -36 -32 -37 -36 -37 -104 0 -66 2 -72 34 -105 19
-19 92 -65 164 -102 159 -82 198 -115 221 -189 29 -92 -1 -174 -86 -238 -69
-51 -233 -63 -352 -27 l-66 21 0 72 c1 72 1 72 17 42 37 -71 116 -126 200
-140 83 -13 175 31 212 102 17 34 13 110 -9 153 -24 46 -52 67 -192 141 -136
73 -172 100 -197 153 -58 119 17 258 157 287 51 11 178 3 227 -14z m2961 -377
c43 0 74 -4 74 -10 0 -6 -32 -10 -75 -10 l-75 0 0 -180 c0 -179 0 -181 25
-205 28 -29 54 -31 101 -9 48 23 53 11 8 -17 -55 -33 -140 -38 -176 -9 l-28
21 0 199 0 199 -32 3 -33 3 48 22 c28 13 54 34 65 52 l17 31 3 -45 3 -45 75 0z
m-2146 -27 l0 -47 33 31 c68 65 135 81 163 38 32 -49 -13 -87 -62 -50 -29 22
-69 18 -103 -11 l-31 -26 0 -146 c0 -167 3 -186 33 -200 17 -8 2 -11 -68 -11
-72 0 -86 2 -67 11 12 6 25 21 28 32 2 12 3 95 2 186 -3 163 -3 165 -25 168
-13 2 -23 6 -23 10 1 6 95 57 113 61 4 0 7 -20 7 -46z m689 19 c19 -9 47 -36
64 -59 24 -34 31 -55 35 -111 8 -120 -33 -203 -121 -247 -65 -31 -158 -36
-208 -11 -18 9 -34 16 -36 16 -8 0 -2 -291 7 -314 6 -16 21 -29 42 -35 26 -7
10 -9 -69 -8 l-102 2 25 20 25 20 -3 340 -3 340 -27 3 c-32 4 -38 22 -8 22 12
0 31 6 43 14 12 8 32 17 45 21 20 6 22 3 22 -29 0 -39 10 -45 31 -20 14 17 60
43 99 55 33 11 97 2 139 -19z m859 -14 c107 59 195 47 242 -31 18 -28 20 -51
20 -199 0 -161 1 -167 22 -182 21 -15 18 -16 -57 -16 -70 0 -77 2 -59 14 17
13 19 30 22 163 2 90 -1 163 -8 185 -21 73 -112 88 -204 34 l-46 -27 0 -163
c0 -165 4 -186 40 -199 8 -3 -23 -6 -69 -6 -81 -1 -83 0 -62 17 21 16 22 23
19 197 -3 173 -4 180 -24 189 -19 9 -16 12 35 36 l56 27 3 -38 3 -38 67 37z
m932 -415 c22 -11 14 -13 -65 -12 -70 0 -85 3 -68 11 30 14 33 32 33 210 0
129 -3 159 -16 172 -8 9 -21 16 -27 17 -7 0 15 13 48 29 l60 28 5 -221 5 -221
25 -13z m300 406 c89 55 156 62 222 23 47 -28 58 -75 58 -247 0 -142 2 -157
20 -175 l20 -20 -82 0 c-74 0 -80 2 -58 13 l25 13 0 178 0 178 -28 24 c-39 33
-96 32 -167 -4 l-55 -28 -3 -154 c-3 -176 0 -197 31 -210 15 -6 -5 -9 -68 -9
-79 -1 -87 1 -65 12 l25 13 0 184 c0 184 0 185 -22 188 -27 4 -31 22 -5 22 9
1 35 11 57 24 l40 23 5 -38 5 -38 45 28z m-3079 18 c43 -29 79 -82 79 -118 l0
-29 -160 0 -160 0 0 -62 c0 -108 46 -172 144 -199 46 -12 126 9 165 44 l24 22
-12 -23 c-33 -63 -162 -99 -261 -72 -143 38 -191 261 -83 381 52 57 96 78 169
79 47 0 69 -5 95 -23z m1472 8 c45 -18 87 -78 87 -122 l0 -33 -155 0 -155 0 0
-57 c0 -82 15 -127 55 -162 67 -58 148 -64 219 -16 44 30 50 31 36 6 -5 -11
-35 -32 -65 -46 -47 -24 -64 -27 -124 -23 -58 3 -78 9 -113 33 -67 48 -83 84
-83 190 0 77 4 96 24 132 24 42 89 96 126 106 42 10 114 6 148 -8z m2320 -25
l27 -30 0 -169 c0 -142 3 -172 16 -186 10 -10 24 -13 38 -9 20 6 20 5 5 -11
-10 -9 -38 -20 -63 -22 -45 -5 -47 -4 -58 25 l-12 30 -39 -25 c-95 -60 -207
-32 -207 51 1 46 25 70 130 123 118 60 110 56 110 46 0 -5 -32 -24 -70 -43
-39 -19 -77 -45 -86 -58 -22 -34 -14 -81 19 -106 l28 -21 57 21 57 20 3 160
c1 87 0 169 -3 181 -3 15 -18 26 -43 34 -56 16 -97 -7 -113 -64 -6 -23 -13
-48 -15 -54 -4 -16 -36 -17 -52 -1 -31 31 6 88 82 125 72 34 149 27 189 -17z"/>
<path d="M10760 5552 l-55 -28 -3 -117 c-3 -148 3 -174 54 -209 77 -54 177
-28 218 56 29 60 27 179 -5 236 -29 53 -80 90 -123 90 -17 0 -56 -13 -86 -28z"/>
<path d="M9810 5577 c-24 -12 -70 -80 -70 -104 0 -10 31 -13 120 -13 132 0
134 1 110 64 -23 62 -95 86 -160 53z"/>
<path d="M11292 5574 c-22 -15 -62 -83 -62 -104 0 -6 44 -10 120 -10 66 0 120
3 120 8 0 30 -25 85 -47 102 -31 24 -99 27 -131 4z"/>
</g>
</svg>
