<?xml version="1.0" standalone="no"?>
<!DOCTYPE svg PUBLIC "-//W3C//DTD SVG 20010904//EN"
 "http://www.w3.org/TR/2001/REC-SVG-20010904/DTD/svg10.dtd">
<svg version="1.0" xmlns="http://www.w3.org/2000/svg"
 width="1536.000000pt" height="1024.000000pt" viewBox="0 0 1536.000000 1024.000000"
 preserveAspectRatio="xMidYMid meet">
<metadata>
Created by potrace 1.16, written by Peter Selinger 2001-2019
</metadata>
<g transform="translate(0.000000,1024.000000) scale(0.100000,-0.100000)"
fill="#000000" stroke="none">
<path d="M0 5120 l0 -5120 7680 0 7680 0 0 5120 0 5120 -7680 0 -7680 0 0
-5120z m1506 987 l39 -14 0 -68 c0 -82 -15 -94 -45 -35 -28 55 -71 80 -140 80
-114 0 -170 -37 -170 -110 0 -61 33 -95 175 -182 190 -116 245 -177 245 -270
-1 -83 -49 -153 -140 -200 -89 -46 -317 -31 -366 23 -11 13 -19 41 -22 79 -4
56 -3 60 17 60 11 0 21 -5 21 -11 0 -23 73 -98 111 -113 53 -21 134 -20 185 3
55 25 84 67 84 123 0 65 -45 112 -198 205 -69 43 -140 92 -157 109 -120 120
-65 280 115 331 53 15 188 10 246 -10z m7837 -3 c14 -5 17 -19 17 -71 0 -40
-4 -62 -10 -58 -5 3 -10 13 -10 20 0 26 -61 84 -98 95 -131 36 -252 -29 -252
-135 0 -73 28 -101 190 -185 167 -87 203 -118 225 -194 20 -67 13 -111 -25
-167 -56 -83 -164 -128 -279 -115 -84 10 -160 28 -170 40 -12 16 -22 146 -11
146 5 0 12 -10 16 -22 12 -39 54 -86 102 -115 118 -69 275 -10 298 113 18 97
-24 149 -190 234 -167 85 -226 147 -226 235 0 76 61 154 141 181 44 14 243 13
282 -2z m-4889 -256 c3 -13 6 -40 6 -60 l0 -37 83 -3 c80 -3 82 -4 82 -28 0
-24 -2 -25 -82 -28 l-83 -3 0 -145 0 -145 28 -25 c22 -21 34 -25 65 -21 21 3
47 13 57 22 21 19 50 14 50 -9 0 -22 -64 -67 -109 -77 -62 -14 -140 5 -173 41
l-28 30 0 165 0 165 -29 0 c-49 0 -46 19 12 73 30 29 59 61 64 71 6 10 15 16
22 12 16 -10 -46 -90 -88 -112 l-35 -19 35 -5 34 -5 5 -170 c3 -93 9 -177 13
-186 23 -46 141 -58 214 -21 23 12 44 26 48 32 9 14 5 13 -40 -10 -45 -23 -69
-25 -114 -9 -50 17 -55 38 -58 212 l-2 157 89 0 c53 0 90 4 90 10 0 6 -35 10
-85 10 -95 0 -85 -10 -90 93 -3 49 8 64 19 25z m7816 -108 c40 0 70 -4 70 -10
0 -6 -30 -10 -70 -10 l-70 0 0 -173 c0 -140 3 -177 16 -195 18 -26 56 -28 94
-7 14 8 31 14 39 15 22 0 -9 -31 -46 -47 -54 -22 -120 -17 -148 12 -25 24 -25
26 -25 205 0 137 -3 180 -12 181 -7 1 -23 1 -36 2 -32 0 -22 19 16 29 30 8 68
49 88 93 6 15 9 6 12 -37 l3 -58 69 0z m-10287 14 c61 -21 104 -69 113 -129 3
-25 3 -49 0 -52 -4 -4 -59 -7 -124 -8 -206 -2 -192 1 -192 -44 0 -75 53 -151
116 -167 42 -11 110 2 144 26 21 15 35 19 42 12 28 -28 -27 -82 -105 -103 -51
-14 -164 1 -210 28 -17 11 -45 38 -62 62 -25 36 -30 54 -33 117 -5 93 13 145
67 198 40 39 122 75 172 76 14 0 46 -7 72 -16z m357 -26 c0 -15 5 -14 36 7 68
46 142 40 156 -12 15 -56 -42 -90 -88 -54 -34 27 -36 26 -73 -5 l-31 -26 0
-138 0 -139 28 -13 c15 -7 27 -20 27 -28 0 -22 -220 -28 -228 -6 -7 17 9 32
38 38 19 3 20 11 20 158 l0 155 -27 3 c-31 4 -43 26 -23 42 8 6 44 22 82 35
70 25 82 22 83 -17z m678 18 c65 -34 112 -110 119 -195 13 -141 -110 -267
-259 -264 -31 1 -71 8 -88 16 l-30 15 0 -126 0 -127 31 -26 c19 -15 29 -31 25
-37 -11 -18 -210 -16 -225 1 -8 11 -3 18 24 33 l35 19 -2 304 -3 305 -25 6
c-47 11 -36 38 26 65 74 33 102 33 110 0 l6 -25 29 21 c17 12 42 25 57 30 36
11 136 3 170 -15z m521 -5 c19 -9 44 -29 54 -43 21 -28 38 -100 28 -117 -4 -6
-68 -12 -164 -13 l-157 -3 0 -43 c0 -55 19 -99 59 -137 27 -25 41 -30 94 -32
42 -3 70 1 87 11 58 35 70 40 81 29 13 -13 -32 -68 -75 -90 -38 -20 -166 -23
-216 -5 -45 15 -109 76 -128 122 -22 53 -19 146 7 201 60 127 211 182 330 120z
m534 18 c21 -5 52 -23 70 -39 l32 -28 5 -159 c5 -158 10 -183 35 -183 16 0 26
-23 16 -39 -5 -8 -39 -11 -112 -9 -84 2 -104 6 -104 18 0 8 15 21 33 29 l32
15 0 128 c0 147 -10 179 -61 197 -46 16 -74 14 -118 -8 -61 -31 -62 -35 -59
-182 l3 -134 28 -13 c17 -8 27 -20 25 -30 -3 -14 -19 -17 -107 -20 -63 -2
-108 1 -115 8 -7 7 25 10 104 11 82 0 107 3 86 9 -16 5 -33 15 -37 22 -5 7 -9
76 -9 154 0 133 1 142 23 161 58 54 124 70 183 44 66 -30 75 -59 72 -228 l-3
-136 -35 -13 c-32 -12 -27 -12 65 -12 79 0 94 2 73 10 -16 5 -29 17 -29 26 -1
10 -3 81 -4 160 -2 125 -5 147 -22 170 -57 78 -189 83 -279 11 l-39 -31 -3 36
c-2 20 -6 36 -9 36 -3 0 -33 -10 -67 -22 -57 -21 -59 -23 -31 -28 l30 -5 3
-167 c2 -160 2 -167 -18 -178 -12 -6 -29 -9 -38 -7 -13 3 -11 6 10 15 l27 11
3 133 c4 171 3 178 -34 185 -45 9 -30 32 37 59 70 29 99 28 103 -3 3 -22 4
-22 28 -7 62 41 137 53 207 33z m1319 -1 c25 -7 50 -25 66 -47 26 -33 27 -39
30 -191 3 -157 3 -157 28 -169 16 -7 24 -18 22 -29 -3 -15 -18 -17 -106 -20
-95 -3 -102 -1 -102 17 0 10 12 26 26 36 l25 16 -3 141 c-3 139 -3 140 -31
164 -18 16 -40 24 -64 24 -45 0 -118 -42 -127 -72 -10 -38 -7 -238 4 -259 6
-10 17 -19 24 -19 16 0 29 -27 20 -41 -8 -14 -188 -11 -202 3 -18 18 -15 24
18 38 l30 12 0 142 c0 77 -4 146 -8 152 -4 7 -16 13 -27 15 -11 3 -21 13 -23
24 -2 16 9 25 58 43 69 27 94 26 98 -6 4 -27 4 -27 50 2 60 38 123 45 194 24z
m518 -17 c50 -35 60 -73 60 -227 0 -153 5 -168 50 -137 27 19 45 5 36 -30 -7
-30 -60 -57 -112 -57 -27 0 -46 7 -65 26 l-28 26 -32 -23 c-22 -16 -51 -24
-90 -27 -54 -4 -60 -2 -89 26 -65 66 -27 126 115 182 99 39 105 45 105 105 0
88 -55 132 -110 87 -12 -9 -25 -33 -29 -52 -4 -22 -16 -40 -33 -49 -23 -13
-29 -13 -52 2 -61 41 -2 134 106 166 45 13 137 3 168 -18z m4402 6 c11 -17 10
-51 -3 -64 -13 -13 -59 -4 -66 13 -3 8 -18 14 -33 14 -21 0 -35 -9 -52 -32
-21 -30 -23 -46 -26 -174 -4 -150 3 -184 38 -184 11 0 20 -4 20 -10 0 -6 -38
-10 -95 -10 -57 0 -95 4 -95 10 0 6 6 10 14 10 8 0 22 7 30 16 13 13 16 44 16
178 0 173 -3 186 -49 186 -37 0 -15 14 57 38 l62 21 0 -42 0 -41 38 36 c20 21
48 41 62 47 28 12 71 5 82 -12z m-5444 -184 l2 -193 30 -15 c33 -17 33 -17 24
-39 -5 -13 -24 -16 -109 -16 -118 0 -135 9 -86 49 l32 26 -3 145 -3 145 -28 3
c-22 3 -28 8 -25 24 2 15 19 27 63 44 105 40 100 49 103 -173z m5682 150 l0
-47 28 25 c55 51 84 63 147 64 83 0 129 -29 163 -103 21 -46 24 -65 20 -126
-7 -106 -42 -159 -133 -205 -39 -19 -58 -23 -115 -19 -49 2 -74 9 -89 22 l-21
19 0 -154 c0 -164 4 -179 47 -179 13 0 23 -4 23 -10 0 -6 -45 -10 -117 -9 -91
0 -112 3 -93 11 59 24 55 -2 58 356 l2 331 -32 9 c-29 8 -30 10 -13 17 11 4
40 15 65 25 25 10 48 19 53 19 4 1 7 -20 7 -46z m1319 29 c69 -34 75 -54 81
-240 5 -161 6 -167 28 -177 41 -18 23 -25 -68 -25 -53 0 -90 4 -90 10 0 6 9
10 20 10 31 0 40 38 40 163 -1 138 -11 185 -46 216 -39 33 -109 25 -165 -19
l-39 -32 0 -148 c0 -82 3 -155 6 -164 3 -9 15 -16 25 -16 10 0 19 -4 19 -10 0
-6 -37 -10 -90 -10 -53 0 -90 4 -90 10 0 6 7 10 15 10 28 0 35 39 35 204 l0
165 -32 9 -33 8 58 22 c79 30 87 29 87 -13 0 -40 9 -44 36 -14 26 30 92 59
134 59 19 0 50 -8 69 -18z m987 -62 c3 0 22 13 42 29 49 38 104 55 156 47 100
-16 118 -52 123 -256 2 -85 6 -161 8 -167 2 -7 14 -13 25 -13 11 0 20 -4 20
-10 0 -6 -38 -10 -95 -10 -52 0 -95 4 -95 8 0 4 14 13 31 19 l30 12 -3 160
c-3 160 -3 161 -31 188 -40 41 -109 40 -169 -2 l-43 -31 -3 -119 c-4 -153 3
-206 29 -212 46 -12 12 -23 -71 -23 -53 0 -90 4 -90 10 0 6 8 10 18 10 38 0
42 18 42 192 l0 169 -32 14 c-23 9 -28 15 -18 19 8 3 38 14 65 24 l50 18 3
-38 c2 -21 5 -38 8 -38z m-3026 53 c34 -19 70 -80 70 -117 l0 -26 -155 0 -155
0 0 -57 c0 -80 42 -154 100 -177 72 -28 150 -18 197 26 32 30 42 14 12 -18
-57 -61 -178 -85 -260 -51 -168 70 -171 333 -4 420 42 22 158 22 195 0z m1476
1 c37 -18 68 -62 79 -111 l7 -33 -161 0 -161 0 0 -42 c0 -63 17 -114 50 -152
68 -77 168 -85 241 -19 40 36 53 28 23 -15 -49 -70 -205 -89 -292 -35 -65 40
-93 99 -93 191 0 102 42 176 124 216 42 20 139 21 183 0z m1256 -172 c-3 -201
3 -242 38 -242 11 0 20 -4 20 -10 0 -6 -39 -10 -96 -10 -61 0 -93 4 -89 10 3
6 13 10 20 10 28 0 35 40 35 197 0 166 -4 183 -44 183 -28 0 -12 13 42 32 83
29 77 41 74 -170z m1038 173 c47 -24 53 -47 58 -220 2 -88 9 -166 14 -172 8
-10 17 -9 40 3 38 20 44 13 14 -15 -13 -13 -42 -25 -64 -28 -34 -5 -45 -1 -66
20 l-25 25 -47 -24 c-81 -41 -176 -24 -190 33 -14 53 34 93 194 161 l52 22 0
60 c0 90 -26 130 -84 130 -37 0 -64 -28 -82 -85 -10 -30 -20 -55 -23 -56 -3 0
-14 -2 -23 -4 -43 -8 -47 48 -7 99 48 61 170 87 239 51z m-11315 -1195 c83 -5
175 -12 205 -15 134 -13 489 -46 645 -60 454 -42 599 -54 705 -60 63 -3 126
-8 140 -10 77 -13 513 -16 720 -6 260 14 708 54 880 80 229 35 342 53 394 62
32 6 60 8 62 6 10 -10 -472 -86 -711 -112 -645 -70 -1135 -71 -1855 -4 -118
11 -260 24 -315 29 -55 5 -199 18 -320 30 -508 47 -601 52 -905 47 -193 -3
-350 -11 -455 -23 -88 -10 -151 -20 -139 -22 12 -2 88 4 170 13 301 33 745 31
1094 -5 52 -6 194 -19 315 -30 121 -11 285 -27 365 -35 465 -46 704 -59 1105
-60 389 0 609 11 905 46 47 5 126 14 175 19 88 9 416 59 524 80 30 5 61 15 70
22 14 11 14 10 1 -5 -18 -19 -94 -35 -355 -76 -182 -29 -278 -40 -685 -78
-316 -30 -1063 -24 -1450 12 -25 2 -76 7 -115 10 -38 3 -110 10 -160 15 -49 5
-138 14 -197 20 -60 5 -156 15 -215 20 -60 6 -148 15 -198 20 -49 5 -133 12
-185 15 -52 4 -106 8 -120 10 -14 1 -106 6 -205 10 -276 11 -755 -19 -979 -60
-92 -18 -119 -19 -111 -5 3 6 18 7 32 4 17 -5 24 -3 20 3 -8 12 15 24 41 22
10 -1 7 -4 -8 -9 -42 -13 6 -11 80 5 39 8 53 13 36 14 -57 2 -18 10 144 31
282 36 592 47 855 30z m11660 1 c-6 -6 -63 -19 -127 -30 -65 -12 -169 -30
-230 -41 -405 -70 -832 -101 -1366 -99 -526 3 -763 17 -1547 94 -561 55 -625
59 -930 59 -332 1 -442 -9 -780 -73 -27 -5 -52 -8 -54 -6 -11 12 317 70 479
85 146 13 541 13 730 0 136 -10 365 -31 700 -65 1026 -105 1754 -110 2500 -20
138 17 612 94 619 101 2 2 7 4 10 4 3 0 1 -4 -4 -9z"/>
<path d="M1248 6093 c-66 -22 -125 -75 -138 -124 -26 -97 26 -167 205 -274 74
-44 134 -88 161 -119 40 -44 44 -53 44 -101 0 -62 -27 -108 -80 -139 -28 -17
-52 -21 -120 -21 -106 0 -141 18 -187 95 l-33 54 0 -43 c0 -77 27 -100 142
-120 152 -26 286 31 332 141 47 111 -4 189 -199 306 -147 87 -180 114 -199
163 -13 32 -14 49 -6 78 19 70 74 101 183 101 91 0 148 -32 167 -96 8 -28 8
-27 9 11 1 66 -7 82 -48 92 -61 16 -182 14 -233 -4z"/>
<path d="M1838 5736 c-60 -23 -97 -57 -124 -113 -53 -107 -17 -245 74 -292 86
-44 219 -32 272 24 29 31 19 32 -21 3 -21 -16 -47 -23 -92 -26 -54 -3 -67 0
-104 24 -53 35 -76 80 -81 162 l-4 62 162 0 162 0 -7 36 c-10 58 -25 80 -66
103 -49 28 -123 35 -171 17z m132 -33 c20 -18 33 -41 37 -65 l6 -38 -127 0
c-81 0 -126 4 -126 10 0 22 30 68 60 94 44 37 108 36 150 -1z"/>
<path d="M1845 5698 c-28 -17 -54 -50 -55 -71 0 -16 9 -17 98 -15 97 3 97 3
94 28 -5 55 -85 88 -137 58z"/>
<path d="M2402 5729 c-23 -12 -51 -33 -62 -46 l-20 -26 0 42 c0 22 -4 41 -8
41 -11 0 -111 -36 -117 -42 -3 -3 8 -8 25 -11 l30 -7 -2 -167 -3 -168 -35 -12
c-31 -11 -24 -12 70 -11 58 0 96 3 85 5 -42 11 -45 20 -45 165 0 126 2 143 21
169 11 16 33 36 47 43 25 13 30 12 55 -10 33 -28 40 -29 62 -8 14 14 14 19 2
38 -19 29 -54 31 -105 5z"/>
<path d="M2847 5736 c-20 -8 -52 -25 -71 -40 -19 -14 -37 -26 -40 -26 -3 0 -6
16 -6 36 0 30 -3 35 -17 29 -10 -3 -37 -11 -60 -18 -44 -11 -58 -27 -24 -27
40 0 41 -15 39 -340 l-3 -313 -35 -13 c-32 -11 -26 -12 70 -12 58 0 98 2 90 5
-47 17 -50 28 -50 189 l0 153 35 -23 c118 -81 304 2 335 148 35 171 -107 307
-263 252z m114 -39 c54 -36 84 -100 84 -177 -1 -86 -19 -134 -63 -168 -30 -23
-45 -27 -101 -27 -53 1 -73 6 -103 25 l-38 25 0 137 c0 127 2 139 21 157 59
54 143 66 200 28z"/>
<path d="M2809 5677 l-44 -24 0 -133 c0 -133 0 -133 27 -153 17 -12 48 -22 80
-24 98 -7 151 50 152 167 1 54 -4 73 -27 113 -46 77 -109 95 -188 54z"/>
<path d="M3356 5735 c-49 -17 -100 -67 -127 -123 -17 -34 -20 -57 -17 -112 3
-59 8 -74 34 -107 17 -21 45 -48 63 -60 67 -46 210 -38 272 14 36 31 31 44 -6
15 -76 -60 -204 -43 -257 33 -36 52 -51 132 -38 205 8 45 17 62 50 93 34 32
45 37 88 37 54 0 94 -26 112 -75 21 -55 20 -55 -115 -55 -77 0 -125 -4 -125
-10 0 -6 59 -10 156 -10 l157 0 -6 45 c-6 54 -27 81 -82 106 -47 22 -105 23
-159 4z"/>
<path d="M3345 5679 c-19 -17 -35 -39 -35 -49 0 -15 11 -18 95 -19 52 -1 99 1
105 4 14 9 -9 62 -35 79 -40 26 -89 20 -130 -15z"/>
<path d="M5250 5737 c-19 -7 -53 -25 -75 -40 l-40 -27 -3 36 c-4 40 2 39 -87
7 -44 -16 -47 -18 -22 -21 15 -2 32 -12 37 -22 6 -12 9 -82 8 -172 l-3 -153
-35 -12 c-32 -11 -25 -12 65 -12 70 0 93 3 77 9 -12 5 -24 15 -27 22 -2 7 -6
75 -9 152 -5 137 -5 138 20 161 67 62 154 73 206 26 l33 -29 3 -137 c2 -76 1
-147 -2 -159 -3 -12 -18 -27 -33 -33 -24 -9 -13 -11 67 -12 76 0 91 2 75 11
-11 6 -23 16 -27 22 -4 6 -8 72 -8 146 -1 148 -11 193 -51 222 -33 25 -123 33
-169 15z"/>
<path d="M5732 5733 c-87 -31 -137 -118 -67 -118 25 0 31 4 33 27 2 15 16 41
32 58 24 26 36 31 67 28 53 -4 83 -50 83 -128 0 -36 -5 -62 -14 -69 -7 -6 -57
-30 -112 -54 -69 -29 -103 -50 -113 -68 -29 -53 9 -99 82 -99 37 0 106 30 126
53 18 22 9 21 -31 -3 -40 -24 -66 -25 -96 -4 -17 12 -22 24 -20 47 3 28 10 36
68 63 115 56 110 58 110 -33 0 -96 14 -123 66 -123 40 0 89 22 97 45 4 8 2 15
-2 15 -5 0 -11 -7 -15 -15 -7 -18 -50 -20 -64 -2 -6 6 -12 81 -14 169 -3 150
-4 158 -27 182 -42 45 -113 56 -189 29z"/>
<path d="M4765 5714 c-46 -17 -54 -23 -33 -23 16 -1 31 -9 38 -20 12 -23 14
-300 2 -318 -4 -7 -19 -16 -32 -22 -19 -7 -1 -10 75 -10 83 0 96 2 75 12 -14
6 -28 16 -32 22 -4 5 -8 94 -8 198 0 143 -3 187 -12 186 -7 -1 -40 -12 -73
-25z"/>
<path d="M10619 5701 c-59 -33 -69 -57 -69 -171 0 -128 13 -163 72 -190 55
-25 91 -25 137 1 55 31 74 82 69 190 -2 69 -7 93 -24 115 -50 68 -122 89 -185
55z"/>
<path d="M9659 5715 c-15 -8 -36 -34 -48 -57 l-21 -43 116 -3 c64 -1 119 -1
121 2 10 10 -10 66 -32 90 -19 20 -33 26 -67 26 -24 -1 -55 -7 -69 -15z"/>
<path d="M11142 5714 c-19 -13 -62 -82 -62 -99 0 -3 52 -5 116 -5 l117 0 -6
38 c-9 51 -46 82 -100 82 -24 0 -53 -7 -65 -16z"/>
<path d="M13514 5491 c-76 -35 -104 -62 -104 -99 0 -32 27 -62 54 -62 9 0 40
10 67 21 l49 21 0 74 c0 41 -1 74 -2 74 -2 -1 -31 -14 -64 -29z"/>
</g>
</svg>
